<svg width="101" height="246" viewBox="0 0 101 246" fill="none" xmlns="http://www.w3.org/2000/svg">
<path d="M87.9586 3.17313L2.34522 115.669C0.841549 117.645 0 120.296 0 123.055C0 125.814 0.841549 128.464 2.34522 130.44L87.9586 242.979C88.659 243.9 89.4965 244.633 90.4215 245.133C91.3466 245.633 92.3405 245.891 93.3445 245.891C94.3486 245.891 95.3425 245.633 96.2675 245.133C97.1926 244.633 98.03 243.9 98.7305 242.979C100.172 241.089 100.978 238.552 100.978 235.911C100.978 233.269 100.172 230.733 98.7305 228.843L18.2222 123.055L98.7305 17.2881C100.167 15.3993 100.97 12.8671 100.97 10.2306C100.97 7.59414 100.167 5.06187 98.7305 3.17313C98.03 2.25167 97.1926 1.51929 96.2675 1.0192C95.3425 0.51912 94.3486 0.261475 93.3445 0.261475C92.3405 0.261475 91.3466 0.51912 90.4215 1.0192C89.4965 1.51929 88.659 2.25167 87.9586 3.17313Z" fill="#F2D1D1"/>
</svg>
