<svg width="101" height="246" viewBox="0 0 101 246" fill="none" xmlns="http://www.w3.org/2000/svg">
<path d="M2.26926 3.07604C0.828231 4.96575 0.0214844 7.50252 0.0214844 10.1441C0.0214844 12.7857 0.828231 15.3224 2.26926 17.2121L82.7776 123L2.26926 228.767C0.828231 230.657 0.0214844 233.193 0.0214844 235.835C0.0214844 238.477 0.828231 241.013 2.26926 242.903C2.9697 243.824 3.80716 244.557 4.7322 245.057C5.65725 245.557 6.65114 245.815 7.6552 245.815C8.65926 245.815 9.65315 245.557 10.5782 245.057C11.5032 244.557 12.3407 243.824 13.0411 242.903L98.6545 130.386C100.158 128.41 101 125.759 101 123C101 120.241 100.158 117.591 98.6545 115.615L13.0411 3.09721C12.3407 2.17575 11.5032 1.44336 10.5782 0.943276C9.65315 0.443192 8.65926 0.185547 7.6552 0.185547C6.65114 0.185547 5.65725 0.443192 4.7322 0.943276C3.80716 1.44336 2.9697 2.17575 2.26926 3.09721V3.07604Z" fill="#F2D1D1"/>
</svg>
